<svg width="80" height="80" viewBox="0 0 80 80" fill="none" xmlns="http://www.w3.org/2000/svg">
<rect width="80" height="80" fill="#8DB338"/>
<g clip-path="url(#clip0_5642_8658)">
<path d="M48.985 39.9998L33 29.3423V50.6573L48.985 39.9998ZM56.44 41.0398L29.9425 58.7048C29.7543 58.8301 29.5356 58.9019 29.3097 58.9127C29.0839 58.9235 28.8593 58.8729 28.66 58.7662C28.4607 58.6594 28.294 58.5006 28.1778 58.3067C28.0616 58.1128 28.0001 57.8909 28 57.6648V22.3348C28.0001 22.1087 28.0616 21.8869 28.1778 21.6929C28.294 21.499 28.4607 21.3402 28.66 21.2335C28.8593 21.1267 29.0839 21.0761 29.3097 21.0869C29.5356 21.0977 29.7543 21.1695 29.9425 21.2948L56.44 38.9598C56.6112 39.074 56.7516 39.2286 56.8486 39.41C56.9457 39.5915 56.9965 39.794 56.9965 39.9998C56.9965 40.2056 56.9457 40.4082 56.8486 40.5896C56.7516 40.771 56.6112 40.9257 56.44 41.0398Z" fill="white"/>
</g>
<defs>
<clipPath id="clip0_5642_8658">
<rect width="60" height="60" fill="white" transform="translate(8 10)"/>
</clipPath>
</defs>
</svg>
